<svg xmlns="http://www.w3.org/2000/svg" xmlns:xlink="http://www.w3.org/1999/xlink" width="500" zoomAndPan="magnify" viewBox="0 0 375 374.999991" height="500" preserveAspectRatio="xMidYMid meet" version="1.0"><defs><clipPath id="id1"><path d="M 0 54.066406 L 264 54.066406 L 264 324.066406 L 0 324.066406 Z M 0 54.066406 " clip-rule="nonzero"/></clipPath></defs><g clip-path="url(#id1)"><path fill="#ffce6d" d="M 263.457031 54.066406 L 131.332031 247.839844 L 59.292969 152.65625 L 59.292969 351.816406 L 0 351.816406 L 0 54.066406 L 59.292969 54.066406 L 131.332031 149.25 L 203.371094 54.066406 L 204.164062 54.460938 L 204.164062 54.066406 Z M 263.457031 54.066406 " fill-opacity="1" fill-rule="nonzero"/></g><path fill="#ffce6d" d="M 364.867188 134.679688 C 358.136719 118.605469 348.875 104.507812 337.160156 92.550781 C 325.363281 80.59375 311.667969 71.089844 295.914062 64.121094 C 290.214844 61.589844 284.355469 59.53125 278.339844 57.945312 L 244.695312 107.121094 C 244.933594 107.121094 245.25 107.121094 245.488281 107.121094 C 256.253906 107.121094 266.308594 109.179688 275.808594 113.300781 C 285.308594 117.417969 293.460938 123.039062 300.507812 130.246094 C 307.472656 137.453125 312.933594 145.847656 316.972656 155.425781 C 320.929688 165.007812 322.988281 175.304688 322.988281 186.230469 C 322.988281 197.160156 321.011719 207.453125 316.972656 216.878906 C 313.015625 226.378906 307.472656 234.695312 300.507812 241.902344 C 293.539062 249.109375 285.308594 254.730469 275.808594 258.847656 C 266.308594 262.964844 256.253906 265.023438 245.488281 265.023438 C 234.722656 265.023438 224.746094 262.964844 215.484375 258.847656 C 206.222656 254.730469 198.070312 249.109375 191.023438 241.902344 C 183.976562 234.695312 178.4375 226.378906 174.398438 216.878906 C 173.765625 215.453125 173.289062 214.027344 172.734375 212.601562 L 139.566406 261.304688 C 144 267.796875 148.90625 273.972656 154.371094 279.597656 C 166.007812 291.554688 179.625 301.054688 195.296875 308.023438 C 210.972656 314.992188 227.675781 318.476562 245.488281 318.476562 C 263.300781 318.476562 280.082031 314.992188 295.835938 308.023438 C 311.589844 301.054688 325.363281 291.554688 337.082031 279.597656 C 348.875 267.636719 358.058594 253.621094 364.789062 237.625 C 371.515625 221.628906 374.921875 204.523438 374.921875 186.230469 C 375 168.019531 371.59375 150.835938 364.867188 134.679688 Z M 364.867188 134.679688 " fill-opacity="1" fill-rule="nonzero"/><path fill="#ffce6d" d="M 263.0625 187.738281 C 263.0625 188.746094 262.964844 189.746094 262.765625 190.734375 C 262.570312 191.722656 262.277344 192.683594 261.894531 193.617188 C 261.507812 194.546875 261.035156 195.433594 260.472656 196.273438 C 259.914062 197.109375 259.277344 197.886719 258.5625 198.601562 C 257.851562 199.3125 257.074219 199.949219 256.238281 200.511719 C 255.398438 201.070312 254.511719 201.542969 253.582031 201.929688 C 252.648438 202.316406 251.6875 202.605469 250.699219 202.804688 C 249.710938 203 248.710938 203.097656 247.703125 203.097656 C 246.695312 203.097656 245.695312 203 244.707031 202.804688 C 243.71875 202.605469 242.757812 202.316406 241.828125 201.929688 C 240.894531 201.542969 240.011719 201.070312 239.171875 200.511719 C 238.332031 199.949219 237.558594 199.3125 236.84375 198.601562 C 236.132812 197.886719 235.496094 197.109375 234.933594 196.273438 C 234.375 195.433594 233.902344 194.546875 233.515625 193.617188 C 233.128906 192.683594 232.839844 191.722656 232.640625 190.734375 C 232.445312 189.746094 232.347656 188.746094 232.347656 187.738281 C 232.347656 186.726562 232.445312 185.730469 232.640625 184.738281 C 232.839844 183.75 233.128906 182.789062 233.515625 181.859375 C 233.902344 180.925781 234.375 180.039062 234.933594 179.203125 C 235.496094 178.363281 236.132812 177.585938 236.84375 176.875 C 237.558594 176.160156 238.332031 175.523438 239.171875 174.964844 C 240.011719 174.402344 240.894531 173.929688 241.828125 173.542969 C 242.757812 173.15625 243.71875 172.867188 244.707031 172.667969 C 245.695312 172.472656 246.695312 172.375 247.703125 172.375 C 248.710938 172.375 249.710938 172.472656 250.699219 172.667969 C 251.6875 172.867188 252.648438 173.15625 253.582031 173.542969 C 254.511719 173.929688 255.398438 174.402344 256.238281 174.964844 C 257.074219 175.523438 257.851562 176.160156 258.5625 176.875 C 259.277344 177.585938 259.914062 178.363281 260.472656 179.203125 C 261.035156 180.039062 261.507812 180.925781 261.894531 181.859375 C 262.277344 182.789062 262.570312 183.75 262.765625 184.738281 C 262.964844 185.730469 263.0625 186.726562 263.0625 187.738281 Z M 263.0625 187.738281 " fill-opacity="1" fill-rule="nonzero"/></svg>