<svg xmlns="http://www.w3.org/2000/svg" xmlns:xlink="http://www.w3.org/1999/xlink" preserveAspectRatio="xMidYMid meet" version="1.0" viewBox="8.0 7.7 76.0 77.5" zoomAndPan="magnify" style="fill: rgb(140, 82, 255);" height="78px" width="76px"><g data-name="Layer 5" id="__id25_sbvqd42ucs"><path d="M81,49.33H79.67V39.6a3,3,0,0,0-3-3H74V25a1.24,1.24,0,0,0-.35-.88l-15.71-16A1.27,1.27,0,0,0,57,7.69H18.48a1.25,1.25,0,0,0-1.25,1.25V36.62H14.52a3,3,0,0,0-3,3V53.38h-.48a3,3,0,0,0-3,3s0,.11,0,.17l3.46,25.72a3,3,0,0,0,3,2.89H76.69a3,3,0,0,0,3-2.88L84,52.49a1.09,1.09,0,0,0,0-.18A3,3,0,0,0,81,49.33ZM14,53.38V39.6a.49.49,0,0,1,.48-.48h2.71V53.38Zm36.62-3.46-2.13,3.46H19.73V10.19H55.78V25A1.25,1.25,0,0,0,57,26.21H71.48V37.87h0V49.33H51.73A1.25,1.25,0,0,0,50.66,49.92ZM74,49.33V39.12h2.71a.49.49,0,0,1,.48.48v9.73Z" style="fill: inherit;"/><path d="M27.69,21H47.25a1.25,1.25,0,0,0,0-2.5H27.69a1.25,1.25,0,1,0,0,2.5Z" style="fill: inherit;"/><path d="M34.61,43.34H27.69a1.25,1.25,0,1,0,0,2.5h6.92a1.25,1.25,0,0,0,0-2.5Z" style="fill: inherit;"/><path d="M49.88,43.34H40.57a1.25,1.25,0,1,0,0,2.5h9.31a1.25,1.25,0,0,0,0-2.5Z" style="fill: inherit;"/><path d="M27.69,26.62H49.81a1.25,1.25,0,0,0,0-2.5H27.69a1.25,1.25,0,0,0,0,2.5Z" style="fill: inherit;"/><path d="M58,37.08H27.69a1.25,1.25,0,1,0,0,2.5H58a1.25,1.25,0,0,0,0-2.5Z" style="fill: inherit;"/><path d="M64.65,30.67h-37a1.25,1.25,0,1,0,0,2.5h37a1.25,1.25,0,0,0,0-2.5Z" style="fill: inherit;"/></g></svg>